<?xml version="1.0" encoding="UTF-8" standalone="no"?>
<!-- Created with Inkscape (http://www.inkscape.org/) -->

<svg
   width="80.619507mm"
   height="31.948025mm"
   viewBox="0 0 80.619507 31.948025"
   version="1.1"
   id="svg1"
   xmlns="http://www.w3.org/2000/svg"
   xmlns:svg="http://www.w3.org/2000/svg">
  <defs
     id="defs1" />
  <g
     id="layer1"
     transform="translate(-90.429999,-89.999951)">
    <path
       style="font-size:12.7px;font-family:BroadwayC;-inkscape-font-specification:BroadwayC;fill:#000000;stroke-width:0.705"
       d="m 94.989298,90.482611 0.4699,-0.0127 c 0.6223,0.0127 1.1938,0.1016 1.7272,0.2921 0.5588,0.1905 1.079499,0.4826 1.562099,0.8763 0.1397,0.1524 0.2667,0.2921 0.3937,0.4191 0.2032,0.2032 0.3429,0.3048 0.4191,0.3048 0.127,-0.0127 0.1905,-0.0762 0.1905,-0.2032 l -0.0254,-0.1397 c -0.1143,-0.2413 -0.3302,-0.4826 -0.6604,-0.7493 -0.1905,-0.1524 -0.4699,-0.3429 -0.8509,-0.5715 -0.406399,-0.254 -0.812799,-0.4191 -1.244599,-0.5207 -0.4572,-0.127 -0.9144,-0.1778 -1.397,-0.1778 -1.4859,0.0127 -2.7178,0.5334 -3.7084,1.5748 -0.9652,1.0033 -1.4351,2.1717 -1.4351,3.5052 0.0127,0.5715 0.1143,1.1303 0.3175,1.689099 0.2286,0.5715 0.5334,1.0795 0.9398,1.5367 0.508,0.5842 1.0922,1.0033 1.7526,1.2827 0.6731,0.2794 1.397,0.4191 2.1717,0.4191 0.1143,-0.0127 0.2159,-0.0127 0.3302,-0.0127 0.127,-0.0127 0.3048,-0.0254 0.5461,-0.0381 0.6477,-0.0889 1.2446,-0.2794 1.790699,-0.5842 0.5588,-0.3175 1.016,-0.7239 1.3843,-1.2192 0.393703,-0.508 0.660403,-1.016 0.812803,-1.524 0.1778,-0.533399 0.254,-1.104899 0.254,-1.727199 h -4.597402 c -0.1143,0.0127 -0.1905,0.0254 -0.254,0.0508 -0.0635,0.0381 -0.0889,0.0889 -0.0889,0.1651 0.0127,0.1016 0.0381,0.1651 0.0889,0.1905 0.0762,0.0254 0.1524,0.0381 0.254,0.0381 l 0.1016,-0.0127 h 4.013202 c -0.127,0.7366 -0.292103,1.333499 -0.520703,1.816099 -0.2794,0.5969 -0.6604,1.0795 -1.1557,1.4605 -0.4572,0.3683 -0.965199,0.6223 -1.523999,0.7747 -0.4826,0.127 -1.0287,0.1905 -1.6637,0.1905 l -0.3937,-0.0127 z m 7.302502,5.930899 c 0.0127,1.143 0.254,1.9812 0.7366,2.5273 0.508,0.5461 1.3208,0.8763 2.4511,1.0033 0.4445,0.0508 0.9144,0.0762 1.4351,0.0762 0.6858,-0.0127 1.3335,-0.0762 1.9431,-0.2159 0.635,-0.1524 1.143,-0.381 1.524,-0.6985 0.2921,-0.254 0.5207,-0.5334 0.6858,-0.8636 0.1905,-0.3429 0.3175,-0.7239 0.3937,-1.1557 0.0889,-0.4445 0.1397,-0.927099 0.1651,-1.447799 0.0381,-0.5334 0.0508,-1.1176 0.0508,-1.778 v -0.4699 c 0.0254,-0.4445 0.0254,-0.8763 0.0254,-1.2954 0.0254,-0.4318 0.0254,-0.8001 0.0254,-1.1176 l -0.0254,-0.6096 c -0.0381,-0.1016 -0.127,-0.1397 -0.2794,-0.1397 -0.1143,0.0127 -0.1905,0.0508 -0.2286,0.127 -0.0381,0.0762 -0.0508,0.2667 -0.0508,0.5715 l 0.0381,1.0795 c -0.0254,0.6096 -0.0254,1.1938 -0.0254,1.778 -0.0127,0.5969 -0.0127,1.1811 -0.0127,1.7653 -0.0127,0.635 -0.0381,1.130299 -0.1016,1.485899 -0.1143,0.5461 -0.3048,0.9906 -0.5842,1.3462 -0.4191,0.5461 -1.0287,0.9017 -1.8288,1.0795 -0.4572,0.1016 -1.1811,0.1524 -2.1717,0.1524 v -7.810499 l 0.0381,-1.4986 h -4.2291 l 0.0254,1.524 z m 19.31668,3.3147 c 0.1524,-0.0127 0.254,-0.0254 0.3048,-0.0635 0.0635,-0.0508 0.0889,-0.1016 0.0889,-0.1651 l -0.0381,-0.127 c -0.0381,-0.0889 -0.1397,-0.127 -0.3048,-0.127 -0.2286,0.0127 -0.5588,0.0254 -1.0033,0.0508 -0.4572,0.0381 -0.7874,0.0508 -1.0033,0.0508 -0.0508,-0.0127 -0.3683,-0.0127 -0.9525,-0.0254 -0.5969,-0.0254 -1.0033,-0.0254 -1.2446,-0.0254 v -5.956299 l 3.9116,0.0381 c 0.127,0 0.2032,-0.0127 0.254,-0.0381 0.0635,-0.0381 0.0889,-0.1016 0.0889,-0.2032 -0.0127,-0.127 -0.0381,-0.2032 -0.1016,-0.2286 -0.0635,-0.0381 -0.1524,-0.0508 -0.2794,-0.0508 -0.127,0.0127 -0.8382,0.0254 -2.159,0.0508 -0.3302,0.0127 -0.762,0.0127 -1.2954,0.0127 l -0.4191,-0.0127 v -2.1717 h 0.5588 c 0.0635,0.0127 0.4445,0.0127 1.143,0.0254 0.7112,0.0254 1.2065,0.0254 1.4859,0.0254 l 0.3556,0.0254 c 0.1524,-0.0127 0.2413,-0.0254 0.2921,-0.0635 0.0508,-0.0508 0.0762,-0.1016 0.0762,-0.1651 l -0.0254,-0.1524 c -0.0254,-0.0889 -0.1143,-0.127 -0.2667,-0.127 h -7.7978 l 0.0254,1.524 v 6.375399 l -0.0254,1.524 z m 4.87679,-2.0955 c 0.254,0.2667 0.4191,0.4572 0.5207,0.5969 0.2032,0.2794 0.29209,0.508 0.29209,0.7112 v 0.1016 c -0.0381,0.1905 -0.15239,0.3302 -0.34289,0.4191 -0.1524,0.0762 -0.3302,0.1016 -0.5461,0.1016 l -0.1651,-0.0127 c -0.3302,0 -0.6477,-0.0635 -0.9525,-0.1905 -0.381,-0.1651 -0.8255,-0.4445 -1.3462,-0.8636 -0.1143,-0.0762 -0.2032,-0.1524 -0.2921,-0.2286 -0.1524,-0.1143 -0.254,-0.1651 -0.3302,-0.1651 -0.0762,0 -0.127,0.0254 -0.1651,0.0762 l -0.0508,0.1524 c 0.0127,0.0635 0.0254,0.1143 0.0508,0.1651 0.0508,0.0635 0.0889,0.1143 0.127,0.1524 0.5334,0.4699 1.1049,0.8128 1.7272,1.0287 0.635,0.2286 1.3081,0.3302 2.0193,0.3302 h 0.30479 c 0.8255,-0.0127 1.5494,-0.2032 2.1844,-0.5842 0.7366,-0.4572 1.1557,-1.0541 1.2827,-1.8161 l 0.0254,-0.4318 c 0,-0.508 -0.1524,-1.015999 -0.4572,-1.549399 -0.254,-0.4318 -0.5715,-0.8636 -0.9779,-1.2954 l -1.7907,-1.8923 c -0.2667,-0.2794 -0.45719,-0.4953 -0.58419,-0.6731 -0.2413,-0.3302 -0.3556,-0.5969 -0.3556,-0.8001 0.0127,-0.1397 0.0635,-0.254 0.1778,-0.3429 0.127,-0.1016 0.3048,-0.1651 0.53339,-0.1905 h 0.254 c 0.4445,0.0127 0.8636,0.1143 1.27,0.3302 0.381,0.2032 0.7493,0.4318 1.1176,0.6985 0.0635,0 0.1143,-0.0381 0.1651,-0.1143 0.0254,-0.0381 0.0254,-0.0635 0.0254,-0.0889 l -0.0127,-0.0889 c -0.0762,-0.1524 -0.2159,-0.2794 -0.4191,-0.4064 -0.0762,-0.0508 -0.2413,-0.1397 -0.508,-0.2667 -0.7112,-0.3302 -1.4224,-0.4953 -2.15899,-0.4953 -0.889,0.0127 -1.651,0.1778 -2.3114,0.5207 -0.7874,0.4191 -1.27,1.0033 -1.4478,1.7653 -0.0254,0.0762 -0.0381,0.1651 -0.0508,0.2667 -0.0254,0.1143 -0.0254,0.2032 -0.0254,0.2794 0.0127,0.4064 0.1016,0.8128 0.2921,1.2192 0.1651,0.3556 0.3937,0.7239 0.6985,1.1049 0.1524,0.1778 0.4191,0.4953 0.8255,0.9525 z"
       id="text1"
       aria-label="GUES " />
    <path
       style="font-size:12.7px;font-family:BroadwayD;-inkscape-font-specification:BroadwayD;fill:#000000;stroke-width:0.705"
       d="m 147.51606,105.24602 c -0.69453,0 -1.33945,0.14263 -1.94097,0.42168 -0.89297,0.42168 -1.56889,1.048 -2.02778,1.89136 -0.37827,0.68833 -0.56431,1.40766 -0.56431,2.16421 0,0.60771 0.11782,1.19062 0.35967,1.75493 0.38447,0.93017 1.0356,1.64951 1.95337,2.158 0.68213,0.39068 1.41387,0.58291 2.18281,0.58291 0.5209,0 1.0294,-0.0868 1.53169,-0.27285 0.60772,-0.22324 1.14722,-0.5581 1.61851,-1.01079 0.43408,-0.41548 0.76274,-0.89917 0.99839,-1.45727 0.23564,-0.55191 0.35346,-1.13482 0.35346,-1.74253 0,-0.77515 -0.19223,-1.50069 -0.5643,-2.18281 -0.47129,-0.84957 -1.15342,-1.48209 -2.04639,-1.89136 -0.60772,-0.27285 -1.22783,-0.41548 -1.85415,-0.41548 z m -0.5271,0.41548 c 0.14263,-0.0248 0.29145,-0.0372 0.44028,-0.0372 0.63872,0 1.24644,0.13643 1.82935,0.40928 0.76894,0.35967 1.37046,0.92397 1.79834,1.68052 0.34726,0.62011 0.5209,1.28984 0.5209,2.00918 0,0.5519 -0.10542,1.079 -0.31006,1.58129 -0.29766,0.72554 -0.76895,1.32085 -1.42627,1.78594 -0.71934,0.5085 -1.53169,0.75654 -2.44947,0.75654 -0.13022,0 -0.26665,-0.0124 -0.40307,-0.0372 l -0.006,-0.75655 c -0.0248,-1.35805 -0.031,-2.46806 -0.031,-3.33623 0,-0.97978 0.0124,-2.33164 0.0372,-4.05556 z m 13.60537,3.95635 c -3.47266,-1.93477 -6.04614,-3.42305 -7.72666,-4.46485 0.031,0.97979 0.0496,2.41226 0.0496,4.30982 0,0.41547 -0.0124,1.46967 -0.0248,3.15639 l -0.006,0.70073 -0.006,0.44029 c 0,0.21704 0.0806,0.32246 0.25425,0.32246 0.16123,0 0.24805,-0.0868 0.24805,-0.26045 0,-0.0124 -0.006,-0.16123 -0.006,-0.43408 -0.0248,-0.84336 -0.0496,-1.90996 -0.062,-3.19981 l -0.006,-0.30385 c 0.76895,0.40307 2.16421,1.17822 4.18579,2.33164 1.71773,0.99218 2.89595,1.68671 3.54087,2.09599 -0.006,-0.60151 -0.0124,-1.27744 -0.0248,-2.02158 -0.0124,-0.97978 -0.0186,-1.68052 -0.0186,-2.1022 0,-0.44648 0.006,-1.0604 0.0186,-1.82934 0.0124,-1.01699 0.0186,-1.71153 0.0248,-2.0898 0,-0.22324 0,-0.36587 0.006,-0.42788 v -0.11162 c 0,-0.22944 -0.0868,-0.34727 -0.24804,-0.34727 -0.14883,0 -0.22325,0.11163 -0.22325,0.32247 v 0.10542 c 0,0.19843 0.006,0.5767 0.0124,1.12861 l 0.0124,1.83555 z m 10.45518,0.0744 h -3.34244 -0.23564 l -0.38447,-0.006 c -0.19224,0 -0.28526,0.0682 -0.28526,0.19844 0,0.0868 0.031,0.14262 0.10542,0.16743 0.0372,0.0186 0.20464,0.031 0.4961,0.0372 h 0.32866 2.90835 c -0.0372,0.45889 -0.16123,0.91158 -0.36587,1.35186 -0.48369,1.0542 -1.28364,1.77353 -2.38745,2.16421 -0.44649,0.16123 -0.89917,0.23564 -1.35806,0.23564 -0.15503,0 -0.31006,-0.0124 -0.46509,-0.0434 -0.0248,-1.63711 -0.031,-2.91456 -0.031,-3.81993 0,-1.40146 0.006,-2.84013 0.031,-4.32221 0.17364,-0.0186 0.33487,-0.031 0.48369,-0.031 1.30225,0 2.36265,0.5519 3.19361,1.65571 0.10542,0.14883 0.20464,0.21704 0.30386,0.21704 0.062,0 0.11162,-0.0186 0.15502,-0.0558 0.0434,-0.0372 0.0682,-0.0806 0.0682,-0.13022 0,-0.16123 -0.19844,-0.42788 -0.58911,-0.80615 -0.88057,-0.83716 -1.93477,-1.25884 -3.1564,-1.25884 -0.57051,0 -1.12861,0.11162 -1.66191,0.32866 -0.77515,0.32246 -1.40767,0.80615 -1.89756,1.45728 -0.60772,0.80615 -0.91157,1.69912 -0.91157,2.6789 0,0.80616 0.20463,1.5627 0.62011,2.28203 0.44649,0.78135 1.07901,1.36426 1.89756,1.76114 0.63252,0.31006 1.28364,0.46508 1.96577,0.46508 0.42788,0 0.85576,-0.062 1.28364,-0.18603 0.80616,-0.23564 1.48829,-0.65732 2.05259,-1.26504 0.75655,-0.81855 1.15342,-1.84795 1.17823,-3.07578 z"
       id="text2"
       aria-label="ONG" />
    <path
       d="m 116.35949,135.22158 c 2.28913,-0.89021 3.43369,-2.54347 3.43369,-5.08694 0,-2.98858 -2.00298,-5.40488 -4.61004,-5.40488 -0.25435,0 -0.60408,0.0318 -0.92201,0.0954 l -0.82663,-3.75162 c 2.3845,-2.19374 3.59265,-4.89618 3.59265,-8.36166 0,-3.847 -1.62146,-6.04075 -2.41629,-6.04075 -1.23995,0 -3.14755,2.54347 -3.14755,6.70841 0,1.52608 0.25435,3.05217 0.73125,4.76901 -2.8932,2.8614 -5.81819,5.84998 -5.81819,9.76057 0,4.22852 3.40189,7.75759 7.50324,7.75759 0.54049,0 1.17635,-0.0318 1.74863,-0.19076 0.60408,2.70244 0.89022,4.29211 0.89022,4.80081 0,2.95678 -2.13016,3.52906 -3.21113,3.52906 -0.85843,0 -1.4625,-0.31793 -1.84402,-0.89021 1.49429,0 2.22554,-0.63587 2.22554,-1.97119 0,-1.11277 -0.82663,-2.25733 -2.13016,-2.25733 -1.30353,0 -2.22554,1.46249 -2.22554,2.63885 0,1.81222 1.87581,3.21113 3.94238,3.21113 2.19375,0 4.03776,-1.55788 4.03776,-3.847 0,-1.9394 -0.89021,-5.24591 -0.9538,-5.46847 z m -0.25434,-23.65428 c 0,2.03477 -1.74864,5.05515 -3.33831,6.00895 -0.28614,-0.66766 -0.41332,-1.4625 -0.41332,-2.32092 0,-2.60706 1.11277,-5.43667 2.73424,-5.43667 0.69945,0 1.01739,0.57228 1.01739,1.74864 z m 2.28912,19.64832 c 0,1.58967 -0.76304,2.70244 -2.22554,3.3383 l -1.4307,-7.18531 c 2.13016,0 3.65624,1.4625 3.65624,3.84701 z m -2.8932,3.52906 c -0.89021,0.22256 -1.49429,0.34973 -1.87581,0.34973 -2.82961,0 -5.72281,-2.25733 -5.72281,-5.43667 0,-2.63885 1.65326,-5.24591 4.99156,-8.04373 l 0.57228,3.40189 c -1.39891,0.5087 -3.02037,2.32092 -3.02037,4.41929 0,2.25733 1.87581,3.43368 2.92499,3.75162 l 0.25435,-0.15897 c -0.0318,0 -1.87581,-1.04918 -1.87581,-2.76603 0,-1.27173 1.17636,-2.57526 2.28912,-2.82961 z"
       id="text5"
       style="font-size:31.7934px;font-family:BroadwayD;-inkscape-font-specification:BroadwayD;fill:#000000;stroke-width:0.882453"
       transform="scale(1.1852355,0.84371419)"
       aria-label="ð„ž" />
    <path
       style="font-size:6.35px;font-family:BroadwayD;-inkscape-font-specification:BroadwayD;fill:#000000;stroke-width:0.705"
       d="m 142.73009,95.203967 c -0.45268,0.266651 -0.98598,0.508496 -1.5999,0.728638 v 0.350366 l -0.22634,-0.0155 c -0.0434,-0.0031 -0.0837,-0.0031 -0.12403,-0.0031 -0.0806,0.0062 -0.11782,0.04341 -0.11782,0.111621 0,0.07751 0.0496,0.114721 0.14883,0.114721 0.0403,0 0.0837,0 0.13333,-0.0062 0.062,-0.0031 0.10232,-0.0062 0.12092,-0.0062 0.0124,0 0.0341,0.0031 0.0651,0.0031 v 1.110009 c 0,0.269751 -0.003,0.486792 -0.003,0.654224 v 0.238745 c 0,0.133325 0.003,0.238745 0.0124,0.31626 0.0279,0.260449 0.11472,0.468188 0.26045,0.623218 0.19844,0.223242 0.48369,0.331762 0.85266,0.331762 0.53951,0 0.93018,-0.195336 1.17823,-0.58601 0.0837,-0.136426 0.12712,-0.248047 0.12712,-0.334864 0,-0.07441 -0.0372,-0.114721 -0.10542,-0.114721 -0.062,0 -0.11162,0.06201 -0.15503,0.179834 -0.0434,0.111621 -0.10232,0.207739 -0.17053,0.285254 -0.0961,0.10852 -0.18604,0.16123 -0.26975,0.16123 -0.0434,0 -0.0775,-0.0217 -0.10232,-0.06511 -0.031,-0.04961 -0.0434,-0.164331 -0.0434,-0.341065 0,-0.08682 -0.003,-0.300756 -0.009,-0.644922 -0.009,-0.350366 -0.0124,-0.737939 -0.0124,-1.162719 0,-0.136426 0,-0.350366 0.006,-0.641822 h 0.0744 c 0.0744,0 0.19534,0.0062 0.36277,0.0186 0.0434,0.0062 0.0806,0.0062 0.11162,0.0062 0.093,0 0.13953,-0.03721 0.13953,-0.114721 0,-0.08062 -0.0465,-0.124024 -0.13333,-0.124024 -0.0217,0 -0.0434,0.0031 -0.0682,0.0031 -0.14883,0.0155 -0.31006,0.0217 -0.48679,0.0217 v -0.09612 c 0.006,-0.356568 0.0186,-0.691431 0.0341,-1.00149 z m 2.67891,1.528589 v -0.117822 l 0.003,-0.548804 -0.003,-0.5302 v -0.08682 h -1.5813 c -0.003,0.08061 -0.003,0.127124 -0.003,0.139526 l 0.009,1.258838 v 0.458887 1.066601 l -0.006,1.308447 h 1.5968 l -0.009,-0.573608 c -0.009,-0.737939 -0.0124,-1.190625 -0.0124,-1.358057 0,-0.210839 0,-0.465088 0.006,-0.768945 0.29145,-0.235644 0.5364,-0.356567 0.73484,-0.356567 0.12712,0 0.20154,0.05581 0.22324,0.16123 0.006,0.03411 0.009,0.359668 0.0155,0.979785 -0.003,1.141016 -0.006,1.779737 -0.0124,1.916162 h 1.5906 c -0.0155,-0.393774 -0.0217,-0.756543 -0.0217,-1.085205 0,-0.09612 0,-0.291455 0.006,-0.58291 0.003,-0.192236 0.006,-0.359668 0.006,-0.496094 0,-0.220141 -0.0124,-0.390673 -0.031,-0.511596 -0.0527,-0.291455 -0.19223,-0.502295 -0.42168,-0.63252 -0.19533,-0.10542 -0.42168,-0.16123 -0.68212,-0.16123 -0.30386,0 -0.61082,0.07751 -0.92088,0.226343 -0.12712,0.06201 -0.28835,0.16123 -0.48679,0.294555 z m 4.46794,1.354956 c 0.0589,0 0.20154,0 0.42478,-0.0062 0.16433,0 0.47439,-0.0031 0.93018,-0.0031 h 0.58291 0.13953 c 0.003,-0.666625 -0.23565,-1.175122 -0.71934,-1.528588 -0.31006,-0.223243 -0.65732,-0.337964 -1.0387,-0.337964 -0.33796,0 -0.65112,0.09302 -0.93637,0.272851 -0.28836,0.179834 -0.5023,0.42168 -0.64492,0.722437 -0.12403,0.260449 -0.18604,0.523999 -0.18604,0.787549 0,0.223242 0.0465,0.446484 0.13953,0.669726 0.10542,0.254248 0.25424,0.468189 0.45268,0.641821 0.33487,0.297657 0.72554,0.443384 1.16582,0.443384 0.27905,0 0.55191,-0.06201 0.82166,-0.192236 0.26665,-0.124023 0.48369,-0.272852 0.64492,-0.443384 0.13643,-0.145727 0.20774,-0.26355 0.20774,-0.350366 0,-0.03721 -0.0124,-0.07131 -0.0341,-0.09612 -0.0248,-0.02481 -0.0527,-0.04031 -0.0868,-0.04031 -0.031,0 -0.0558,0.0124 -0.0806,0.03101 -0.0217,0.0186 -0.062,0.06821 -0.12092,0.145728 -0.15193,0.204638 -0.33177,0.37207 -0.5395,0.502294 -0.25735,0.161231 -0.5178,0.238746 -0.78445,0.238746 -0.16123,0 -0.26045,-0.04651 -0.30386,-0.142627 -0.0248,-0.04961 -0.0341,-0.167432 -0.0341,-0.353467 z m 0.79375,-0.204638 c -0.21084,0.0093 -0.34726,0.0124 -0.41547,0.0124 -0.093,0 -0.22015,-0.0031 -0.37828,-0.0124 v -0.905372 c 0,-0.235644 0.0124,-0.381372 0.0434,-0.437182 0.0434,-0.09302 0.15813,-0.139526 0.34107,-0.139526 0.10232,0 0.18603,0.0155 0.25424,0.04341 0.0868,0.04031 0.13643,0.114721 0.14573,0.226342 0.003,0.03411 0.006,0.136426 0.009,0.306958 z"
       id="text7"
       aria-label="the&#10;" />
  </g>
</svg>
